<svg xmlns="http://www.w3.org/2000/svg" width="760" height="480" font-family="ui-sans-serif,system-ui,sans-serif"><rect width="760" height="480" fill="#fff"/><text x="380" y="26" text-anchor="middle" font-size="16" font-weight="700">Learned router vs static policies — FRAMES (eval n=50, train n=50)</text><text x="380" y="42" text-anchor="middle" font-size="11" fill="#666">resolve (GAIA-EM) vs cost; learned line incl. probe tax. Up-and-left = better $/correct.</text><line x1="70.31948005237757" y1="50" x2="70.31948005237757" y2="420" stroke="#eee"/><text x="70.31948005237757" y="436" text-anchor="middle" font-size="10" fill="#444">$0.005</text><line x1="203.6103510752142" y1="50" x2="203.6103510752142" y2="420" stroke="#eee"/><text x="203.6103510752142" y="436" text-anchor="middle" font-size="10" fill="#444">$0.01</text><line x1="336.9012220980508" y1="50" x2="336.9012220980508" y2="420" stroke="#eee"/><text x="336.9012220980508" y="436" text-anchor="middle" font-size="10" fill="#444">$0.02</text><line x1="513.1021692951463" y1="50" x2="513.1021692951463" y2="420" stroke="#eee"/><text x="513.1021692951463" y="436" text-anchor="middle" font-size="10" fill="#444">$0.05</text><line x1="646.3930403179829" y1="50" x2="646.3930403179829" y2="420" stroke="#eee"/><text x="646.3930403179829" y="436" text-anchor="middle" font-size="10" fill="#444">$0.10</text><line x1="70" y1="420" x2="730" y2="420" stroke="#eee"/><text x="62" y="423" text-anchor="end" font-size="10" fill="#444">0.0</text><line x1="70" y1="363.93939393939394" x2="730" y2="363.93939393939394" stroke="#eee"/><text x="62" y="366.93939393939394" text-anchor="end" font-size="10" fill="#444">0.1</text><line x1="70" y1="307.8787878787879" x2="730" y2="307.8787878787879" stroke="#eee"/><text x="62" y="310.8787878787879" text-anchor="end" font-size="10" fill="#444">0.2</text><line x1="70" y1="251.8181818181818" x2="730" y2="251.8181818181818" stroke="#eee"/><text x="62" y="254.8181818181818" text-anchor="end" font-size="10" fill="#444">0.3</text><line x1="70" y1="195.75757575757575" x2="730" y2="195.75757575757575" stroke="#eee"/><text x="62" y="198.75757575757575" text-anchor="end" font-size="10" fill="#444">0.4</text><line x1="70" y1="139.6969696969697" x2="730" y2="139.6969696969697" stroke="#eee"/><text x="62" y="142.6969696969697" text-anchor="end" font-size="10" fill="#444">0.5</text><line x1="70" y1="83.63636363636363" x2="730" y2="83.63636363636363" stroke="#eee"/><text x="62" y="86.63636363636363" text-anchor="end" font-size="10" fill="#444">0.6</text><text x="400" y="466" text-anchor="middle" font-size="12" fill="#222">$ / task (log scale)</text><text x="18" y="235" text-anchor="middle" font-size="12" fill="#222" transform="rotate(-90 18 235)">resolve (exact-match)</text><line x1="70" y1="150.90909090909093" x2="730" y2="150.90909090909093" stroke="#16a34a" stroke-dasharray="6 4" stroke-width="1.5"/><text x="726" y="145.90909090909093" text-anchor="end" font-size="10" fill="#16a34a">per-question oracle UB 0.48</text><polyline fill="none" stroke="#2563eb" stroke-width="2.5" points="181.74052801870153,251.8181818181818 181.74052801870153,251.8181818181818 181.74052801870153,251.8181818181818 243.10584380526092,218.1818181818182 243.10584380526092,218.1818181818182 243.10584380526092,218.1818181818182 304.4805002029685,206.969696969697 304.4805002029685,206.969696969697 520.566562551867,184.54545454545456"/><circle cx="181.74052801870153" cy="251.8181818181818" r="4" fill="#2563eb"/><circle cx="181.74052801870153" cy="251.8181818181818" r="4" fill="#2563eb"/><circle cx="181.74052801870153" cy="251.8181818181818" r="4" fill="#2563eb"/><circle cx="243.10584380526092" cy="218.1818181818182" r="4" fill="#2563eb"/><circle cx="243.10584380526092" cy="218.1818181818182" r="4" fill="#2563eb"/><circle cx="243.10584380526092" cy="218.1818181818182" r="4" fill="#2563eb"/><circle cx="304.4805002029685" cy="206.969696969697" r="4" fill="#2563eb"/><circle cx="304.4805002029685" cy="206.969696969697" r="4" fill="#2563eb"/><circle cx="520.566562551867" cy="184.54545454545456" r="4" fill="#2563eb"/><text x="181.74052801870153" y="267.8181818181818" font-size="9" fill="#2563eb">V=0.03</text><text x="520.566562551867" y="176.54545454545456" font-size="9" fill="#2563eb">V=1.5</text><rect x="277.90917825270753" y="201.969696969697" width="10" height="10" fill="#ea580c"/><text x="291.90917825270753" y="210.969696969697" font-size="11" font-weight="700" fill="#ea580c">A</text><rect x="641.2833991624707" y="179.54545454545456" width="10" height="10" fill="#9333ea"/><text x="655.2833991624707" y="188.54545454545456" font-size="11" font-weight="700" fill="#9333ea">B</text><rect x="133.58790641146308" y="246.8181818181818" width="10" height="10" fill="#0891b2"/><text x="147.58790641146308" y="255.8181818181818" font-size="11" font-weight="700" fill="#0891b2">C</text><rect x="660.2970353886266" y="190.75757575757575" width="10" height="10" fill="#dc2626"/><text x="674.2970353886266" y="199.75757575757575" font-size="11" font-weight="700" fill="#dc2626">D</text><text x="82" y="62" font-size="11" font-weight="700">●</text><text x="96" y="62" font-size="11" fill="#2563eb">learned router (V-sweep)</text><rect x="82" y="69" width="9" height="9" fill="#ea580c"/><text x="96" y="78" font-size="10" fill="#333">A = base-ReAct (cheap)</text><rect x="82" y="83" width="9" height="9" fill="#9333ea"/><text x="96" y="92" font-size="10" fill="#333">B = self-consistency N=5 (cheap)</text><rect x="82" y="97" width="9" height="9" fill="#0891b2"/><text x="96" y="106" font-size="10" fill="#333">C = fail-fast respawn (cheap)</text><rect x="82" y="111" width="9" height="9" fill="#dc2626"/><text x="96" y="120" font-size="10" fill="#333">D = route-to-frontier (opus)</text></svg>