<svg xmlns="http://www.w3.org/2000/svg" viewBox="0 0 820 460" width="820" height="460"><rect width="820" height="460" fill="white"/><text x="64" y="26" font-family="system-ui,sans-serif" font-size="17" font-weight="700" fill="#111827">H3 FRAMES: resolve% by condition — base / +dense / +graph (kHop-expansion)</text><text x="64" y="44" font-family="system-ui,sans-serif" font-size="11" fill="#6b7280">ONNX all-MiniLM-L6-v2 embedder; n=50, seed 42; whiskers = Wilson 95% CI; * = cheap model</text><line x1="64" y1="353.76397515527947" x2="620" y2="353.76397515527947" stroke="#e5e7eb" stroke-width="1"/><text x="58" y="357.76397515527947" text-anchor="end" font-family="system-ui,sans-serif" font-size="10" fill="#6b7280">5%</text><line x1="64" y1="311.527950310559" x2="620" y2="311.527950310559" stroke="#e5e7eb" stroke-width="1"/><text x="58" y="315.527950310559" text-anchor="end" font-family="system-ui,sans-serif" font-size="10" fill="#6b7280">10%</text><line x1="64" y1="269.2919254658385" x2="620" y2="269.2919254658385" stroke="#e5e7eb" stroke-width="1"/><text x="58" y="273.2919254658385" text-anchor="end" font-family="system-ui,sans-serif" font-size="10" fill="#6b7280">15%</text><line x1="64" y1="227.05590062111798" x2="620" y2="227.05590062111798" stroke="#e5e7eb" stroke-width="1"/><text x="58" y="231.05590062111798" text-anchor="end" font-family="system-ui,sans-serif" font-size="10" fill="#6b7280">20%</text><line x1="64" y1="184.81987577639748" x2="620" y2="184.81987577639748" stroke="#e5e7eb" stroke-width="1"/><text x="58" y="188.81987577639748" text-anchor="end" font-family="system-ui,sans-serif" font-size="10" fill="#6b7280">25%</text><line x1="64" y1="142.583850931677" x2="620" y2="142.583850931677" stroke="#e5e7eb" stroke-width="1"/><text x="58" y="146.583850931677" text-anchor="end" font-family="system-ui,sans-serif" font-size="10" fill="#6b7280">30%</text><line x1="64" y1="396" x2="620" y2="396" stroke="#374151" stroke-width="1.5"/><line x1="64" y1="56" x2="64" y2="396" stroke="#374151" stroke-width="1.5"/><rect x="91.42933333333332" y="345.3167701863354" width="40.77333333333333" height="50.68322981366458" fill="#94a3b8" opacity="0.85" rx="2"/><line x1="111.81599999999999" y1="259.0087764944551" x2="111.81599999999999" y2="378.5864279155916" stroke="#374151" stroke-width="1.5"/><line x1="108.81599999999999" y1="259.0087764944551" x2="114.81599999999999" y2="259.0087764944551" stroke="#374151" stroke-width="1.5"/><line x1="108.81599999999999" y1="378.5864279155916" x2="114.81599999999999" y2="378.5864279155916" stroke="#374151" stroke-width="1.5"/><text x="111.81599999999999" y="342.3167701863354" text-anchor="middle" font-family="system-ui,sans-serif" font-size="8.5" fill="#111827">6%</text><rect x="136.28" y="328.4223602484472" width="40.77333333333333" height="67.5776397515528" fill="#3b82f6" opacity="0.85" rx="2"/><line x1="156.66666666666666" y1="236.86730769387177" x2="156.66666666666666" y2="369.3499102932451" stroke="#374151" stroke-width="1.5"/><line x1="153.66666666666666" y1="236.86730769387177" x2="159.66666666666666" y2="236.86730769387177" stroke="#374151" stroke-width="1.5"/><line x1="153.66666666666666" y1="369.3499102932451" x2="159.66666666666666" y2="369.3499102932451" stroke="#374151" stroke-width="1.5"/><text x="156.66666666666666" y="325.4223602484472" text-anchor="middle" font-family="system-ui,sans-serif" font-size="8.5" fill="#111827">8%</text><rect x="181.13066666666668" y="311.527950310559" width="40.77333333333333" height="84.47204968944101" fill="#7c3aed" opacity="0.85" rx="2"/><line x1="201.51733333333334" y1="215.56355990489305" x2="201.51733333333334" y2="359.27567165929395" stroke="#374151" stroke-width="1.5"/><line x1="198.51733333333334" y1="215.56355990489305" x2="204.51733333333334" y2="215.56355990489305" stroke="#374151" stroke-width="1.5"/><line x1="198.51733333333334" y1="359.27567165929395" x2="204.51733333333334" y2="359.27567165929395" stroke="#374151" stroke-width="1.5"/><text x="201.51733333333334" y="308.527950310559" text-anchor="middle" font-family="system-ui,sans-serif" font-size="8.5" fill="#111827">10%</text><text x="156.66666666666666" y="414" text-anchor="middle" font-family="system-ui,sans-serif" font-size="9.5" fill="#111827">*deepseek-v4-pro</text><rect x="276.7626666666667" y="311.527950310559" width="40.77333333333333" height="84.47204968944101" fill="#94a3b8" opacity="0.85" rx="2"/><line x1="297.14933333333335" y1="215.56355990489305" x2="297.14933333333335" y2="359.27567165929395" stroke="#374151" stroke-width="1.5"/><line x1="294.14933333333335" y1="215.56355990489305" x2="300.14933333333335" y2="215.56355990489305" stroke="#374151" stroke-width="1.5"/><line x1="294.14933333333335" y1="359.27567165929395" x2="300.14933333333335" y2="359.27567165929395" stroke="#374151" stroke-width="1.5"/><text x="297.14933333333335" y="308.527950310559" text-anchor="middle" font-family="system-ui,sans-serif" font-size="8.5" fill="#111827">10%</text><rect x="321.61333333333334" y="311.527950310559" width="40.77333333333333" height="84.47204968944101" fill="#3b82f6" opacity="0.85" rx="2"/><line x1="342" y1="215.56355990489305" x2="342" y2="359.27567165929395" stroke="#374151" stroke-width="1.5"/><line x1="339" y1="215.56355990489305" x2="345" y2="215.56355990489305" stroke="#374151" stroke-width="1.5"/><line x1="339" y1="359.27567165929395" x2="345" y2="359.27567165929395" stroke="#374151" stroke-width="1.5"/><text x="342" y="308.527950310559" text-anchor="middle" font-family="system-ui,sans-serif" font-size="8.5" fill="#111827">10%</text><rect x="366.464" y="328.4223602484472" width="40.77333333333333" height="67.5776397515528" fill="#7c3aed" opacity="0.85" rx="2"/><line x1="386.85066666666665" y1="236.86730769387177" x2="386.85066666666665" y2="369.3499102932451" stroke="#374151" stroke-width="1.5"/><line x1="383.85066666666665" y1="236.86730769387177" x2="389.85066666666665" y2="236.86730769387177" stroke="#374151" stroke-width="1.5"/><line x1="383.85066666666665" y1="369.3499102932451" x2="389.85066666666665" y2="369.3499102932451" stroke="#374151" stroke-width="1.5"/><text x="386.85066666666665" y="325.4223602484472" text-anchor="middle" font-family="system-ui,sans-serif" font-size="8.5" fill="#111827">8%</text><text x="342" y="414" text-anchor="middle" font-family="system-ui,sans-serif" font-size="9.5" fill="#111827">*glm-5.2</text><rect x="462.09600000000006" y="311.527950310559" width="40.77333333333333" height="84.47204968944101" fill="#94a3b8" opacity="0.85" rx="2"/><line x1="482.4826666666667" y1="215.56355990489305" x2="482.4826666666667" y2="359.27567165929395" stroke="#374151" stroke-width="1.5"/><line x1="479.4826666666667" y1="215.56355990489305" x2="485.4826666666667" y2="215.56355990489305" stroke="#374151" stroke-width="1.5"/><line x1="479.4826666666667" y1="359.27567165929395" x2="485.4826666666667" y2="359.27567165929395" stroke="#374151" stroke-width="1.5"/><text x="482.4826666666667" y="308.527950310559" text-anchor="middle" font-family="system-ui,sans-serif" font-size="8.5" fill="#111827">10%</text><rect x="506.9466666666667" y="260.8447204968944" width="40.77333333333333" height="135.1552795031056" fill="#3b82f6" opacity="0.85" rx="2"/><line x1="527.3333333333334" y1="155.13233473290848" x2="527.3333333333334" y2="325.572937562489" stroke="#374151" stroke-width="1.5"/><line x1="524.3333333333334" y1="155.13233473290848" x2="530.3333333333334" y2="155.13233473290848" stroke="#374151" stroke-width="1.5"/><line x1="524.3333333333334" y1="325.572937562489" x2="530.3333333333334" y2="325.572937562489" stroke="#374151" stroke-width="1.5"/><text x="527.3333333333334" y="257.8447204968944" text-anchor="middle" font-family="system-ui,sans-serif" font-size="8.5" fill="#111827">16%</text><rect x="551.7973333333333" y="260.8447204968944" width="40.77333333333333" height="135.1552795031056" fill="#7c3aed" opacity="0.85" rx="2"/><line x1="572.184" y1="155.13233473290848" x2="572.184" y2="325.572937562489" stroke="#374151" stroke-width="1.5"/><line x1="569.184" y1="155.13233473290848" x2="575.184" y2="155.13233473290848" stroke="#374151" stroke-width="1.5"/><line x1="569.184" y1="325.572937562489" x2="575.184" y2="325.572937562489" stroke="#374151" stroke-width="1.5"/><text x="572.184" y="257.8447204968944" text-anchor="middle" font-family="system-ui,sans-serif" font-size="8.5" fill="#111827">16%</text><text x="527.3333333333334" y="414" text-anchor="middle" font-family="system-ui,sans-serif" font-size="9.5" fill="#111827">gpt-5.5</text><rect x="638" y="64" width="12" height="12" fill="#94a3b8" rx="2"/><text x="654" y="74" font-family="system-ui,sans-serif" font-size="10.5" fill="#111827">base (no-RAG, parametric)</text><rect x="638" y="86" width="12" height="12" fill="#3b82f6" rx="2"/><text x="654" y="96" font-family="system-ui,sans-serif" font-size="10.5" fill="#111827">+dense cosine RAG</text><rect x="638" y="108" width="12" height="12" fill="#7c3aed" rx="2"/><text x="654" y="118" font-family="system-ui,sans-serif" font-size="10.5" fill="#111827">+graph kHop+cosine</text><rect x="638" y="130" width="12" height="12" fill="#374151" rx="2"/><text x="654" y="140" font-family="system-ui,sans-serif" font-size="10.5" fill="#111827">* = cheap model</text></svg>