<svg xmlns="http://www.w3.org/2000/svg" viewBox="0 0 820 440" width="820" height="440"><rect width="820" height="440" fill="white"/><text x="80" y="26" font-family="system-ui,sans-serif" font-size="17" font-weight="700" fill="#111827">H3 FRAMES: Δ resolve vs base — dense-RAG and graph-RAG (cheap models)</text><text x="80" y="44" font-family="system-ui,sans-serif" font-size="11" fill="#6b7280">Δ = resolve(condition) − resolve(base); whiskers = 95% bootstrap CI; above zero = lift; below = harm</text><line x1="80" y1="305.43589743589746" x2="620" y2="305.43589743589746" stroke="#e5e7eb" stroke-width="1" stroke-dasharray="4 3"/><text x="74" y="309.43589743589746" text-anchor="end" font-family="system-ui,sans-serif" font-size="10" fill="#6b7280">-15pp</text><line x1="80" y1="272.95726495726495" x2="620" y2="272.95726495726495" stroke="#e5e7eb" stroke-width="1" stroke-dasharray="4 3"/><text x="74" y="276.95726495726495" text-anchor="end" font-family="system-ui,sans-serif" font-size="10" fill="#6b7280">-10pp</text><line x1="80" y1="240.47863247863248" x2="620" y2="240.47863247863248" stroke="#e5e7eb" stroke-width="1" stroke-dasharray="4 3"/><text x="74" y="244.47863247863248" text-anchor="end" font-family="system-ui,sans-serif" font-size="10" fill="#6b7280">-5pp</text><line x1="80" y1="208" x2="620" y2="208" stroke="#374151" stroke-width="2" stroke-dasharray=""/><text x="74" y="212" text-anchor="end" font-family="system-ui,sans-serif" font-size="10" fill="#6b7280">0pp</text><line x1="80" y1="175.52136752136752" x2="620" y2="175.52136752136752" stroke="#e5e7eb" stroke-width="1" stroke-dasharray="4 3"/><text x="74" y="179.52136752136752" text-anchor="end" font-family="system-ui,sans-serif" font-size="10" fill="#6b7280">+5pp</text><line x1="80" y1="143.04273504273505" x2="620" y2="143.04273504273505" stroke="#e5e7eb" stroke-width="1" stroke-dasharray="4 3"/><text x="74" y="147.04273504273505" text-anchor="end" font-family="system-ui,sans-serif" font-size="10" fill="#6b7280">+10pp</text><line x1="80" y1="110.56410256410255" x2="620" y2="110.56410256410255" stroke="#e5e7eb" stroke-width="1" stroke-dasharray="4 3"/><text x="74" y="114.56410256410255" text-anchor="end" font-family="system-ui,sans-serif" font-size="10" fill="#6b7280">+15pp</text><line x1="80" y1="56" x2="80" y2="360" stroke="#374151" stroke-width="1.5"/><rect x="131.83999999999997" y="195.008547008547" width="75.60000000000001" height="12.991452991453002" fill="#3b82f6" opacity="0.85" rx="2"/><line x1="169.64" y1="130.05128205128204" x2="169.64" y2="246.97435897435898" stroke="#374151" stroke-width="1.5"/><line x1="165.64" y1="130.05128205128204" x2="173.64" y2="130.05128205128204" stroke="#374151" stroke-width="1.5"/><line x1="165.64" y1="246.97435897435898" x2="173.64" y2="246.97435897435898" stroke="#374151" stroke-width="1.5"/><text x="169.64" y="191.008547008547" text-anchor="middle" font-family="system-ui,sans-serif" font-size="9" fill="#111827">+2.0pp</text><rect x="222.56" y="182.01709401709402" width="75.60000000000001" height="25.982905982905976" fill="#7c3aed" opacity="0.85" rx="2"/><line x1="260.36" y1="130.05128205128204" x2="260.36" y2="233.98290598290598" stroke="#374151" stroke-width="1.5"/><line x1="256.36" y1="130.05128205128204" x2="264.36" y2="130.05128205128204" stroke="#374151" stroke-width="1.5"/><line x1="256.36" y1="233.98290598290598" x2="264.36" y2="233.98290598290598" stroke="#374151" stroke-width="1.5"/><text x="260.36" y="178.01709401709402" text-anchor="middle" font-family="system-ui,sans-serif" font-size="9" fill="#111827">+4.0pp</text><text x="215" y="380" text-anchor="middle" font-family="system-ui,sans-serif" font-size="10" fill="#111827">deepseek-v4-pro</text><rect x="401.84000000000003" y="208" width="75.60000000000001" height="1" fill="#3b82f6" opacity="0.85" rx="2"/><line x1="439.64000000000004" y1="169.02564102564102" x2="439.64000000000004" y2="246.97435897435898" stroke="#374151" stroke-width="1.5"/><line x1="435.64000000000004" y1="169.02564102564102" x2="443.64000000000004" y2="169.02564102564102" stroke="#374151" stroke-width="1.5"/><line x1="435.64000000000004" y1="246.97435897435898" x2="443.64000000000004" y2="246.97435897435898" stroke="#374151" stroke-width="1.5"/><text x="439.64000000000004" y="204" text-anchor="middle" font-family="system-ui,sans-serif" font-size="9" fill="#111827">+0.0pp</text><rect x="492.56" y="208" width="75.60000000000001" height="12.991452991453002" fill="#7c3aed" opacity="0.85" rx="2"/><line x1="530.36" y1="182.01709401709402" x2="530.36" y2="272.95726495726495" stroke="#374151" stroke-width="1.5"/><line x1="526.36" y1="182.01709401709402" x2="534.36" y2="182.01709401709402" stroke="#374151" stroke-width="1.5"/><line x1="526.36" y1="272.95726495726495" x2="534.36" y2="272.95726495726495" stroke="#374151" stroke-width="1.5"/><text x="530.36" y="234.991452991453" text-anchor="middle" font-family="system-ui,sans-serif" font-size="9" fill="#111827">-2.0pp</text><text x="485" y="380" text-anchor="middle" font-family="system-ui,sans-serif" font-size="10" fill="#111827">glm-5.2</text><rect x="638" y="64" width="12" height="12" fill="#3b82f6" rx="2"/><text x="654" y="74" font-family="system-ui,sans-serif" font-size="10.5" fill="#111827">Δ dense-RAG vs base</text><rect x="638" y="86" width="12" height="12" fill="#7c3aed" rx="2"/><text x="654" y="96" font-family="system-ui,sans-serif" font-size="10.5" fill="#111827">Δ graph-RAG vs base</text><rect x="638" y="108" width="12" height="12" fill="#374151" rx="2"/><text x="654" y="118" font-family="system-ui,sans-serif" font-size="10.5" fill="#111827">whiskers = 95% bootstrap CI</text></svg>