<svg xmlns="http://www.w3.org/2000/svg" viewBox="0 0 860 470" width="860" height="470"><rect width="860" height="470" fill="white"/><text x="56" y="26" font-family="system-ui,sans-serif" font-size="18" font-weight="700" fill="#111827">ADR-201 H1: dense-RAG does NOT flatten knowledge for cheap models (FRAMES, n=40)</text><text x="56" y="46" font-family="system-ui,sans-serif" font-size="12" fill="#6b7280">Strict-EM resolve, single-shot, reasoning-off. Whiskers = 95% Wilson CI. Δ = +dense − base (pp). H1 needs Δ_cheap&gt;Δ_frontier&gt;0 → not met in either retriever arm.</text><line x1="56" y1="400" x2="650" y2="400" stroke="#374151" stroke-width="1.5"/><line x1="56" y1="64" x2="56" y2="400" stroke="#374151" stroke-width="1.5"/><line x1="56" y1="400" x2="650" y2="400" stroke="#e5e7eb" stroke-width="1"/><text x="48" y="404" text-anchor="end" font-family="system-ui,sans-serif" font-size="11" fill="#6b7280">0%</text><line x1="56" y1="352" x2="650" y2="352" stroke="#e5e7eb" stroke-width="1"/><text x="48" y="356" text-anchor="end" font-family="system-ui,sans-serif" font-size="11" fill="#6b7280">5%</text><line x1="56" y1="304" x2="650" y2="304" stroke="#e5e7eb" stroke-width="1"/><text x="48" y="308" text-anchor="end" font-family="system-ui,sans-serif" font-size="11" fill="#6b7280">10%</text><line x1="56" y1="255.99999999999997" x2="650" y2="255.99999999999997" stroke="#e5e7eb" stroke-width="1"/><text x="48" y="260" text-anchor="end" font-family="system-ui,sans-serif" font-size="11" fill="#6b7280">15%</text><line x1="56" y1="207.99999999999997" x2="650" y2="207.99999999999997" stroke="#e5e7eb" stroke-width="1"/><text x="48" y="211.99999999999997" text-anchor="end" font-family="system-ui,sans-serif" font-size="11" fill="#6b7280">20%</text><line x1="56" y1="160" x2="650" y2="160" stroke="#e5e7eb" stroke-width="1"/><text x="48" y="164" text-anchor="end" font-family="system-ui,sans-serif" font-size="11" fill="#6b7280">25%</text><line x1="56" y1="112" x2="650" y2="112" stroke="#e5e7eb" stroke-width="1"/><text x="48" y="116" text-anchor="end" font-family="system-ui,sans-serif" font-size="11" fill="#6b7280">30%</text><line x1="56" y1="64" x2="650" y2="64" stroke="#e5e7eb" stroke-width="1"/><text x="48" y="68" text-anchor="end" font-family="system-ui,sans-serif" font-size="11" fill="#6b7280">35%</text><text transform="translate(16,232) rotate(-90)" text-anchor="middle" font-family="system-ui,sans-serif" font-size="12" fill="#111827">resolve (strict EM)</text><rect x="72" y="304" width="46" height="96" fill="#6b7280" opacity="0.88"/><line x1="95" y1="178.70008594745053" x2="95" y2="362.00426790824815" stroke="#374151" stroke-width="1.4"/><line x1="89" y1="178.70008594745053" x2="101" y2="178.70008594745053" stroke="#374151" stroke-width="1.4"/><line x1="89" y1="362.00426790824815" x2="101" y2="362.00426790824815" stroke="#374151" stroke-width="1.4"/><text x="95" y="298" text-anchor="middle" font-family="system-ui,sans-serif" font-size="10.5" fill="#111827">10.0</text><rect x="132" y="352" width="46" height="48" fill="#dc2626" opacity="0.88"/><line x1="155" y1="241.55996014791805" x2="155" y2="386.73243793974297" stroke="#374151" stroke-width="1.4"/><line x1="149" y1="241.55996014791805" x2="161" y2="241.55996014791805" stroke="#374151" stroke-width="1.4"/><line x1="149" y1="386.73243793974297" x2="161" y2="386.73243793974297" stroke="#374151" stroke-width="1.4"/><text x="155" y="346" text-anchor="middle" font-family="system-ui,sans-serif" font-size="10.5" fill="#111827">5.0</text><rect x="192" y="304" width="46" height="96" fill="#2563eb" opacity="0.88"/><line x1="215" y1="178.70008594745053" x2="215" y2="362.00426790824815" stroke="#374151" stroke-width="1.4"/><line x1="209" y1="178.70008594745053" x2="221" y2="178.70008594745053" stroke="#374151" stroke-width="1.4"/><line x1="209" y1="362.00426790824815" x2="221" y2="362.00426790824815" stroke="#374151" stroke-width="1.4"/><text x="215" y="298" text-anchor="middle" font-family="system-ui,sans-serif" font-size="10.5" fill="#111827">10.0</text><text x="155" y="420" text-anchor="middle" font-family="system-ui,sans-serif" font-size="12" font-weight="600" fill="#111827">deepseek-v4-pro</text><text x="155" y="436" text-anchor="middle" font-family="system-ui,sans-serif" font-size="10.5" fill="#6b7280">cheap · Δlex -5.0pp · Δsem 0.0pp</text><rect x="270" y="304" width="46" height="96" fill="#6b7280" opacity="0.88"/><line x1="293" y1="178.70008594745053" x2="293" y2="362.00426790824815" stroke="#374151" stroke-width="1.4"/><line x1="287" y1="178.70008594745053" x2="299" y2="178.70008594745053" stroke="#374151" stroke-width="1.4"/><line x1="287" y1="362.00426790824815" x2="299" y2="362.00426790824815" stroke="#374151" stroke-width="1.4"/><text x="293" y="298" text-anchor="middle" font-family="system-ui,sans-serif" font-size="10.5" fill="#111827">10.0</text><rect x="330" y="304" width="46" height="96" fill="#dc2626" opacity="0.88"/><line x1="353" y1="178.70008594745053" x2="353" y2="362.00426790824815" stroke="#374151" stroke-width="1.4"/><line x1="347" y1="178.70008594745053" x2="359" y2="178.70008594745053" stroke="#374151" stroke-width="1.4"/><line x1="347" y1="362.00426790824815" x2="359" y2="362.00426790824815" stroke="#374151" stroke-width="1.4"/><text x="353" y="298" text-anchor="middle" font-family="system-ui,sans-serif" font-size="10.5" fill="#111827">10.0</text><rect x="390" y="232" width="46" height="168" fill="#2563eb" opacity="0.88"/><line x1="413" y1="93.2771962778325" x2="413" y2="316.0450912299226" stroke="#374151" stroke-width="1.4"/><line x1="407" y1="93.2771962778325" x2="419" y2="93.2771962778325" stroke="#374151" stroke-width="1.4"/><line x1="407" y1="316.0450912299226" x2="419" y2="316.0450912299226" stroke="#374151" stroke-width="1.4"/><text x="413" y="226" text-anchor="middle" font-family="system-ui,sans-serif" font-size="10.5" fill="#111827">17.5</text><text x="353" y="420" text-anchor="middle" font-family="system-ui,sans-serif" font-size="12" font-weight="600" fill="#111827">gpt-5.5</text><text x="353" y="436" text-anchor="middle" font-family="system-ui,sans-serif" font-size="10.5" fill="#6b7280">frontier · Δlex 0.0pp · Δsem 7.5pp</text><rect x="468" y="280" width="46" height="120" fill="#6b7280" opacity="0.88"/><line x1="491" y1="149.3207615657138" x2="491" y2="347.5895701740037" stroke="#374151" stroke-width="1.4"/><line x1="485" y1="149.3207615657138" x2="497" y2="149.3207615657138" stroke="#374151" stroke-width="1.4"/><line x1="485" y1="347.5895701740037" x2="497" y2="347.5895701740037" stroke="#374151" stroke-width="1.4"/><text x="491" y="274" text-anchor="middle" font-family="system-ui,sans-serif" font-size="10.5" fill="#111827">12.5</text><rect x="528" y="352" width="46" height="48" fill="#dc2626" opacity="0.88"/><line x1="551" y1="241.55996014791805" x2="551" y2="386.73243793974297" stroke="#374151" stroke-width="1.4"/><line x1="545" y1="241.55996014791805" x2="557" y2="241.55996014791805" stroke="#374151" stroke-width="1.4"/><line x1="545" y1="386.73243793974297" x2="557" y2="386.73243793974297" stroke="#374151" stroke-width="1.4"/><text x="551" y="346" text-anchor="middle" font-family="system-ui,sans-serif" font-size="10.5" fill="#111827">5.0</text><rect x="588" y="280" width="46" height="120" fill="#2563eb" opacity="0.88"/><line x1="611" y1="149.3207615657138" x2="611" y2="347.5895701740037" stroke="#374151" stroke-width="1.4"/><line x1="605" y1="149.3207615657138" x2="617" y2="149.3207615657138" stroke="#374151" stroke-width="1.4"/><line x1="605" y1="347.5895701740037" x2="617" y2="347.5895701740037" stroke="#374151" stroke-width="1.4"/><text x="611" y="274" text-anchor="middle" font-family="system-ui,sans-serif" font-size="10.5" fill="#111827">12.5</text><text x="551" y="420" text-anchor="middle" font-family="system-ui,sans-serif" font-size="12" font-weight="600" fill="#111827">claude-opus-4.8</text><text x="551" y="436" text-anchor="middle" font-family="system-ui,sans-serif" font-size="10.5" fill="#6b7280">frontier · Δlex -7.5pp · Δsem 0.0pp</text><rect x="668" y="66" width="12" height="12" fill="#6b7280"/><text x="686" y="76" font-family="system-ui,sans-serif" font-size="11.5" fill="#111827">base (no-RAG, parametric)</text><rect x="668" y="88" width="12" height="12" fill="#dc2626"/><text x="686" y="98" font-family="system-ui,sans-serif" font-size="11.5" fill="#111827">+dense-RAG (lexical bigram)</text><rect x="668" y="110" width="12" height="12" fill="#2563eb"/><text x="686" y="120" font-family="system-ui,sans-serif" font-size="11.5" fill="#111827">+dense-RAG (ONNX all-MiniLM)</text><text x="668" y="156" font-family="system-ui,sans-serif" font-size="10.5" fill="#6b7280">Verdict: H1 NOT supported.</text><text x="668" y="172" font-family="system-ui,sans-serif" font-size="10.5" fill="#6b7280">No Δ_cheap&gt;0 lift in either arm;</text><text x="668" y="188" font-family="system-ui,sans-serif" font-size="10.5" fill="#6b7280">only frontier gpt-5.5 gains (+7.5pp,</text><text x="668" y="204" font-family="system-ui,sans-serif" font-size="10.5" fill="#6b7280">CI incl. 0) under semantic RAG.</text></svg>