<svg xmlns="http://www.w3.org/2000/svg" width="960" height="540" viewBox="0 0 960 540" role="img" aria-labelledby="title desc">
<title id="title">MetaHarness: Compose the agent you need</title><desc id="desc">Compose the agent you need. The generator turns project choices into a harness you own.</desc>
<defs>
<radialGradient id="ambient"><stop stop-color="#183246" stop-opacity=".62"/><stop offset="1" stop-color="#05090f" stop-opacity="0"/></radialGradient>
<linearGradient id="panel" x2="1" y2="1"><stop stop-color="#102233"/><stop offset="1" stop-color="#08111c"/></linearGradient>
<linearGradient id="beam"><stop stop-color="#b1d9ff"/><stop offset=".5" stop-color="#7ef0cf"/><stop offset="1" stop-color="#ffac78"/></linearGradient>
<filter id="glow" x="-100%" y="-100%" width="300%" height="300%"><feGaussianBlur stdDeviation="3"/></filter>
<marker id="arrow" markerWidth="8" markerHeight="8" refX="7" refY="4" orient="auto" markerUnits="userSpaceOnUse"><path d="M1 1L7 4L1 7" fill="none" stroke="#9bb1c7" stroke-width="1.4"/></marker>
<clipPath id="frame"><rect width="960" height="540" rx="22"/></clipPath>
</defs><style>
text{font-family:Inter,"Segoe UI",Arial,sans-serif} .mono{font-family:"SFMono-Regular",Consolas,monospace}
.packet{stroke-dasharray:5 95;animation:travel 3.6s linear infinite}
.trace{stroke-dasharray:26 74;animation:travel 6s linear infinite}
.orbit{transform-box:fill-box;transform-origin:center;animation:orbit 24s linear infinite}
.counter-orbit{transform-box:fill-box;transform-origin:center;animation:orbit 32s linear infinite reverse}
.pulse{animation:pulse 3.6s ease-in-out infinite}
.float{animation:float 7s ease-in-out infinite}
.scan{animation:scan 5s ease-in-out infinite}
.step{animation:step 8s ease-in-out infinite}
.cursor{animation:blink 1.2s steps(2,end) infinite}
.still{display:none}
@keyframes travel{to{stroke-dashoffset:-100}}
@keyframes orbit{to{transform:rotate(360deg)}}
@keyframes pulse{0%,100%{opacity:.45}50%{opacity:1}}
@keyframes float{0%,100%{transform:translateY(0)}50%{transform:translateY(-9px)}}
@keyframes scan{0%,100%{transform:translateX(0);opacity:0}10%,90%{opacity:.7}50%{transform:translateX(228px)}}
@keyframes step{0%,20%,100%{stroke:#7ef0cf;stroke-opacity:.9}28%,92%{stroke:#2b4358;stroke-opacity:1}}
@keyframes blink{50%{opacity:0}}
@media(prefers-reduced-motion:reduce){
 *{animation:none!important;transition:none!important}
 .motion{display:none!important}.still{display:inline!important}
 .scene{display:none!important}.scene-first{display:inline!important;opacity:1!important}
 .packet,.trace{stroke-dasharray:none!important;opacity:.7}.scan{display:none}
}
</style><rect x="0" y="0" width="960" height="540" rx="22" fill="#05090f" stroke="#2b4358" /><ellipse cx="690" cy="259.2" rx="470" ry="378.0" fill="url(#ambient)"/><circle cx="32" cy="24" r="0.7" fill="#26394c" opacity=".45"/><circle cx="32" cy="56" r="0.7" fill="#26394c" opacity=".45"/><circle cx="32" cy="88" r="0.7" fill="#26394c" opacity=".45"/><circle cx="32" cy="120" r="0.7" fill="#26394c" opacity=".45"/><circle cx="32" cy="152" r="0.7" fill="#26394c" opacity=".45"/><circle cx="32" cy="184" r="0.7" fill="#26394c" opacity=".45"/><circle cx="32" cy="216" r="0.7" fill="#26394c" opacity=".45"/><circle cx="32" cy="248" r="0.7" fill="#26394c" opacity=".45"/><circle cx="32" cy="280" r="0.7" fill="#26394c" opacity=".45"/><circle cx="32" cy="312" r="0.7" fill="#26394c" opacity=".45"/><circle cx="32" cy="344" r="0.7" fill="#26394c" opacity=".45"/><circle cx="32" cy="376" r="0.7" fill="#26394c" opacity=".45"/><circle cx="32" cy="408" r="0.7" fill="#26394c" opacity=".45"/><circle cx="32" cy="440" r="0.7" fill="#26394c" opacity=".45"/><circle cx="32" cy="472" r="0.7" fill="#26394c" opacity=".45"/><circle cx="32" cy="504" r="0.7" fill="#26394c" opacity=".45"/><circle cx="32" cy="536" r="0.7" fill="#26394c" opacity=".45"/><circle cx="64" cy="24" r="0.7" fill="#26394c" opacity=".45"/><circle cx="64" cy="56" r="0.7" fill="#26394c" opacity=".45"/><circle cx="64" cy="88" r="0.7" fill="#26394c" opacity=".45"/><circle cx="64" cy="120" r="0.7" fill="#26394c" opacity=".45"/><circle cx="64" cy="152" r="0.7" fill="#26394c" opacity=".45"/><circle cx="64" cy="184" r="0.7" fill="#26394c" opacity=".45"/><circle cx="64" cy="216" r="0.7" fill="#26394c" opacity=".45"/><circle cx="64" cy="248" r="0.7" fill="#26394c" opacity=".45"/><circle cx="64" cy="280" r="0.7" fill="#26394c" opacity=".45"/><circle cx="64" cy="312" r="0.7" fill="#26394c" opacity=".45"/><circle cx="64" cy="344" r="0.7" fill="#26394c" opacity=".45"/><circle cx="64" cy="376" r="0.7" fill="#26394c" opacity=".45"/><circle cx="64" cy="408" r="0.7" fill="#26394c" opacity=".45"/><circle cx="64" cy="440" r="0.7" fill="#26394c" opacity=".45"/><circle cx="64" cy="472" r="0.7" fill="#26394c" opacity=".45"/><circle cx="64" cy="504" r="0.7" fill="#26394c" opacity=".45"/><circle cx="64" cy="536" r="0.7" fill="#26394c" opacity=".45"/><circle cx="96" cy="24" r="0.7" fill="#26394c" opacity=".45"/><circle cx="96" cy="56" r="0.7" fill="#26394c" opacity=".45"/><circle cx="96" cy="88" r="0.7" fill="#26394c" opacity=".45"/><circle cx="96" cy="120" r="0.7" fill="#26394c" opacity=".45"/><circle cx="96" cy="152" r="0.7" fill="#26394c" opacity=".45"/><circle cx="96" cy="184" r="0.7" fill="#26394c" opacity=".45"/><circle cx="96" cy="216" r="0.7" fill="#26394c" opacity=".45"/><circle cx="96" cy="248" r="0.7" fill="#26394c" opacity=".45"/><circle cx="96" cy="280" r="0.7" fill="#26394c" opacity=".45"/><circle cx="96" cy="312" r="0.7" fill="#26394c" opacity=".45"/><circle cx="96" cy="344" r="0.7" fill="#26394c" opacity=".45"/><circle cx="96" cy="376" r="0.7" fill="#26394c" opacity=".45"/><circle cx="96" cy="408" r="0.7" fill="#26394c" opacity=".45"/><circle cx="96" cy="440" r="0.7" fill="#26394c" opacity=".45"/><circle cx="96" cy="472" r="0.7" fill="#26394c" opacity=".45"/><circle cx="96" cy="504" r="0.7" fill="#26394c" opacity=".45"/><circle cx="96" cy="536" r="0.7" fill="#26394c" opacity=".45"/><circle cx="128" cy="24" r="0.7" fill="#26394c" opacity=".45"/><circle cx="128" cy="56" r="0.7" fill="#26394c" opacity=".45"/><circle cx="128" cy="88" r="0.7" fill="#26394c" opacity=".45"/><circle cx="128" cy="120" r="0.7" fill="#26394c" opacity=".45"/><circle cx="128" cy="152" r="0.7" fill="#26394c" opacity=".45"/><circle cx="128" cy="184" r="0.7" fill="#26394c" opacity=".45"/><circle cx="128" cy="216" r="0.7" fill="#26394c" opacity=".45"/><circle cx="128" cy="248" r="0.7" fill="#26394c" opacity=".45"/><circle cx="128" cy="280" r="0.7" fill="#26394c" opacity=".45"/><circle cx="128" cy="312" r="0.7" fill="#26394c" opacity=".45"/><circle cx="128" cy="344" r="0.7" fill="#26394c" opacity=".45"/><circle cx="128" cy="376" r="0.7" fill="#26394c" opacity=".45"/><circle cx="128" cy="408" r="0.7" fill="#26394c" opacity=".45"/><circle cx="128" cy="440" r="0.7" fill="#26394c" opacity=".45"/><circle cx="128" cy="472" r="0.7" fill="#26394c" opacity=".45"/><circle cx="128" cy="504" r="0.7" fill="#26394c" opacity=".45"/><circle cx="128" cy="536" r="0.7" fill="#26394c" opacity=".45"/><circle cx="160" cy="24" r="0.7" fill="#26394c" opacity=".45"/><circle cx="160" cy="56" r="0.7" fill="#26394c" opacity=".45"/><circle cx="160" cy="88" r="0.7" fill="#26394c" opacity=".45"/><circle cx="160" cy="120" r="0.7" fill="#26394c" opacity=".45"/><circle cx="160" cy="152" r="0.7" fill="#26394c" opacity=".45"/><circle cx="160" cy="184" r="0.7" fill="#26394c" opacity=".45"/><circle cx="160" cy="216" r="0.7" fill="#26394c" opacity=".45"/><circle cx="160" cy="248" r="0.7" fill="#26394c" opacity=".45"/><circle cx="160" cy="280" r="0.7" fill="#26394c" opacity=".45"/><circle cx="160" cy="312" r="0.7" fill="#26394c" opacity=".45"/><circle cx="160" cy="344" r="0.7" fill="#26394c" opacity=".45"/><circle cx="160" cy="376" r="0.7" fill="#26394c" opacity=".45"/><circle cx="160" cy="408" r="0.7" fill="#26394c" opacity=".45"/><circle cx="160" cy="440" r="0.7" fill="#26394c" opacity=".45"/><circle cx="160" cy="472" r="0.7" fill="#26394c" opacity=".45"/><circle cx="160" cy="504" r="0.7" fill="#26394c" opacity=".45"/><circle cx="160" cy="536" r="0.7" fill="#26394c" opacity=".45"/><circle cx="192" cy="24" r="0.7" fill="#26394c" opacity=".45"/><circle cx="192" cy="56" r="0.7" fill="#26394c" opacity=".45"/><circle cx="192" cy="88" r="0.7" fill="#26394c" opacity=".45"/><circle cx="192" cy="120" r="0.7" fill="#26394c" opacity=".45"/><circle cx="192" cy="152" r="0.7" fill="#26394c" opacity=".45"/><circle cx="192" cy="184" r="0.7" fill="#26394c" opacity=".45"/><circle cx="192" cy="216" r="0.7" fill="#26394c" opacity=".45"/><circle cx="192" cy="248" r="0.7" fill="#26394c" opacity=".45"/><circle cx="192" cy="280" r="0.7" fill="#26394c" opacity=".45"/><circle cx="192" cy="312" r="0.7" fill="#26394c" opacity=".45"/><circle cx="192" cy="344" r="0.7" fill="#26394c" opacity=".45"/><circle cx="192" cy="376" r="0.7" fill="#26394c" opacity=".45"/><circle cx="192" cy="408" r="0.7" fill="#26394c" opacity=".45"/><circle cx="192" cy="440" r="0.7" fill="#26394c" opacity=".45"/><circle cx="192" cy="472" r="0.7" fill="#26394c" opacity=".45"/><circle cx="192" cy="504" r="0.7" fill="#26394c" opacity=".45"/><circle cx="192" cy="536" r="0.7" fill="#26394c" opacity=".45"/><circle cx="224" cy="24" r="0.7" fill="#26394c" opacity=".45"/><circle cx="224" cy="56" r="0.7" fill="#26394c" opacity=".45"/><circle cx="224" cy="88" r="0.7" fill="#26394c" opacity=".45"/><circle cx="224" cy="120" r="0.7" fill="#26394c" opacity=".45"/><circle cx="224" cy="152" r="0.7" fill="#26394c" opacity=".45"/><circle cx="224" cy="184" r="0.7" fill="#26394c" opacity=".45"/><circle cx="224" cy="216" r="0.7" fill="#26394c" opacity=".45"/><circle cx="224" cy="248" r="0.7" fill="#26394c" opacity=".45"/><circle cx="224" cy="280" r="0.7" fill="#26394c" opacity=".45"/><circle cx="224" cy="312" r="0.7" fill="#26394c" opacity=".45"/><circle cx="224" cy="344" r="0.7" fill="#26394c" opacity=".45"/><circle cx="224" cy="376" r="0.7" fill="#26394c" opacity=".45"/><circle cx="224" cy="408" r="0.7" fill="#26394c" opacity=".45"/><circle cx="224" cy="440" r="0.7" fill="#26394c" opacity=".45"/><circle cx="224" cy="472" r="0.7" fill="#26394c" opacity=".45"/><circle cx="224" cy="504" r="0.7" fill="#26394c" opacity=".45"/><circle cx="224" cy="536" r="0.7" fill="#26394c" opacity=".45"/><circle cx="256" cy="24" r="0.7" fill="#26394c" opacity=".45"/><circle cx="256" cy="56" r="0.7" fill="#26394c" opacity=".45"/><circle cx="256" cy="88" r="0.7" fill="#26394c" opacity=".45"/><circle cx="256" cy="120" r="0.7" fill="#26394c" opacity=".45"/><circle cx="256" cy="152" r="0.7" fill="#26394c" opacity=".45"/><circle cx="256" cy="184" r="0.7" fill="#26394c" opacity=".45"/><circle cx="256" cy="216" r="0.7" fill="#26394c" opacity=".45"/><circle cx="256" cy="248" r="0.7" fill="#26394c" opacity=".45"/><circle cx="256" cy="280" r="0.7" fill="#26394c" opacity=".45"/><circle cx="256" cy="312" r="0.7" fill="#26394c" opacity=".45"/><circle cx="256" cy="344" r="0.7" fill="#26394c" opacity=".45"/><circle cx="256" cy="376" r="0.7" fill="#26394c" opacity=".45"/><circle cx="256" cy="408" r="0.7" fill="#26394c" opacity=".45"/><circle cx="256" cy="440" r="0.7" fill="#26394c" opacity=".45"/><circle cx="256" cy="472" r="0.7" fill="#26394c" opacity=".45"/><circle cx="256" cy="504" r="0.7" fill="#26394c" opacity=".45"/><circle cx="256" cy="536" r="0.7" fill="#26394c" opacity=".45"/><circle cx="288" cy="24" r="0.7" fill="#26394c" opacity=".45"/><circle cx="288" cy="56" r="0.7" fill="#26394c" opacity=".45"/><circle cx="288" cy="88" r="0.7" fill="#26394c" opacity=".45"/><circle cx="288" cy="120" r="0.7" fill="#26394c" opacity=".45"/><circle cx="288" cy="152" r="0.7" fill="#26394c" opacity=".45"/><circle cx="288" cy="184" r="0.7" fill="#26394c" opacity=".45"/><circle cx="288" cy="216" r="0.7" fill="#26394c" opacity=".45"/><circle cx="288" cy="248" r="0.7" fill="#26394c" opacity=".45"/><circle cx="288" cy="280" r="0.7" fill="#26394c" opacity=".45"/><circle cx="288" cy="312" r="0.7" fill="#26394c" opacity=".45"/><circle cx="288" cy="344" r="0.7" fill="#26394c" opacity=".45"/><circle cx="288" cy="376" r="0.7" fill="#26394c" opacity=".45"/><circle cx="288" cy="408" r="0.7" fill="#26394c" opacity=".45"/><circle cx="288" cy="440" r="0.7" fill="#26394c" opacity=".45"/><circle cx="288" cy="472" r="0.7" fill="#26394c" opacity=".45"/><circle cx="288" cy="504" r="0.7" fill="#26394c" opacity=".45"/><circle cx="288" cy="536" r="0.7" fill="#26394c" opacity=".45"/><circle cx="320" cy="24" r="0.7" fill="#26394c" opacity=".45"/><circle cx="320" cy="56" r="0.7" fill="#26394c" opacity=".45"/><circle cx="320" cy="88" r="0.7" fill="#26394c" opacity=".45"/><circle cx="320" cy="120" r="0.7" fill="#26394c" opacity=".45"/><circle cx="320" cy="152" r="0.7" fill="#26394c" opacity=".45"/><circle cx="320" cy="184" r="0.7" fill="#26394c" opacity=".45"/><circle cx="320" cy="216" r="0.7" fill="#26394c" opacity=".45"/><circle cx="320" cy="248" r="0.7" fill="#26394c" opacity=".45"/><circle cx="320" cy="280" r="0.7" fill="#26394c" opacity=".45"/><circle cx="320" cy="312" r="0.7" fill="#26394c" opacity=".45"/><circle cx="320" cy="344" r="0.7" fill="#26394c" opacity=".45"/><circle cx="320" cy="376" r="0.7" fill="#26394c" opacity=".45"/><circle cx="320" cy="408" r="0.7" fill="#26394c" opacity=".45"/><circle cx="320" cy="440" r="0.7" fill="#26394c" opacity=".45"/><circle cx="320" cy="472" r="0.7" fill="#26394c" opacity=".45"/><circle cx="320" cy="504" r="0.7" fill="#26394c" opacity=".45"/><circle cx="320" cy="536" r="0.7" fill="#26394c" opacity=".45"/><circle cx="352" cy="24" r="0.7" fill="#26394c" opacity=".45"/><circle cx="352" cy="56" r="0.7" fill="#26394c" opacity=".45"/><circle cx="352" cy="88" r="0.7" fill="#26394c" opacity=".45"/><circle cx="352" cy="120" r="0.7" fill="#26394c" opacity=".45"/><circle cx="352" cy="152" r="0.7" fill="#26394c" opacity=".45"/><circle cx="352" cy="184" r="0.7" fill="#26394c" opacity=".45"/><circle cx="352" cy="216" r="0.7" fill="#26394c" opacity=".45"/><circle cx="352" cy="248" r="0.7" fill="#26394c" opacity=".45"/><circle cx="352" cy="280" r="0.7" fill="#26394c" opacity=".45"/><circle cx="352" cy="312" r="0.7" fill="#26394c" opacity=".45"/><circle cx="352" cy="344" r="0.7" fill="#26394c" opacity=".45"/><circle cx="352" cy="376" r="0.7" fill="#26394c" opacity=".45"/><circle cx="352" cy="408" r="0.7" fill="#26394c" opacity=".45"/><circle cx="352" cy="440" r="0.7" fill="#26394c" opacity=".45"/><circle cx="352" cy="472" r="0.7" fill="#26394c" opacity=".45"/><circle cx="352" cy="504" r="0.7" fill="#26394c" opacity=".45"/><circle cx="352" cy="536" r="0.7" fill="#26394c" opacity=".45"/><circle cx="384" cy="24" r="0.7" fill="#26394c" opacity=".45"/><circle cx="384" cy="56" r="0.7" fill="#26394c" opacity=".45"/><circle cx="384" cy="88" r="0.7" fill="#26394c" opacity=".45"/><circle cx="384" cy="120" r="0.7" fill="#26394c" opacity=".45"/><circle cx="384" cy="152" r="0.7" fill="#26394c" opacity=".45"/><circle cx="384" cy="184" r="0.7" fill="#26394c" opacity=".45"/><circle cx="384" cy="216" r="0.7" fill="#26394c" opacity=".45"/><circle cx="384" cy="248" r="0.7" fill="#26394c" opacity=".45"/><circle cx="384" cy="280" r="0.7" fill="#26394c" opacity=".45"/><circle cx="384" cy="312" r="0.7" fill="#26394c" opacity=".45"/><circle cx="384" cy="344" r="0.7" fill="#26394c" opacity=".45"/><circle cx="384" cy="376" r="0.7" fill="#26394c" opacity=".45"/><circle cx="384" cy="408" r="0.7" fill="#26394c" opacity=".45"/><circle cx="384" cy="440" r="0.7" fill="#26394c" opacity=".45"/><circle cx="384" cy="472" r="0.7" fill="#26394c" opacity=".45"/><circle cx="384" cy="504" r="0.7" fill="#26394c" opacity=".45"/><circle cx="384" cy="536" r="0.7" fill="#26394c" opacity=".45"/><circle cx="416" cy="24" r="0.7" fill="#26394c" opacity=".45"/><circle cx="416" cy="56" r="0.7" fill="#26394c" opacity=".45"/><circle cx="416" cy="88" r="0.7" fill="#26394c" opacity=".45"/><circle cx="416" cy="120" r="0.7" fill="#26394c" opacity=".45"/><circle cx="416" cy="152" r="0.7" fill="#26394c" opacity=".45"/><circle cx="416" cy="184" r="0.7" fill="#26394c" opacity=".45"/><circle cx="416" cy="216" r="0.7" fill="#26394c" opacity=".45"/><circle cx="416" cy="248" r="0.7" fill="#26394c" opacity=".45"/><circle cx="416" cy="280" r="0.7" fill="#26394c" opacity=".45"/><circle cx="416" cy="312" r="0.7" fill="#26394c" opacity=".45"/><circle cx="416" cy="344" r="0.7" fill="#26394c" opacity=".45"/><circle cx="416" cy="376" r="0.7" fill="#26394c" opacity=".45"/><circle cx="416" cy="408" r="0.7" fill="#26394c" opacity=".45"/><circle cx="416" cy="440" r="0.7" fill="#26394c" opacity=".45"/><circle cx="416" cy="472" r="0.7" fill="#26394c" opacity=".45"/><circle cx="416" cy="504" r="0.7" fill="#26394c" opacity=".45"/><circle cx="416" cy="536" r="0.7" fill="#26394c" opacity=".45"/><circle cx="448" cy="24" r="0.7" fill="#26394c" opacity=".45"/><circle cx="448" cy="56" r="0.7" fill="#26394c" opacity=".45"/><circle cx="448" cy="88" r="0.7" fill="#26394c" opacity=".45"/><circle cx="448" cy="120" r="0.7" fill="#26394c" opacity=".45"/><circle cx="448" cy="152" r="0.7" fill="#26394c" opacity=".45"/><circle cx="448" cy="184" r="0.7" fill="#26394c" opacity=".45"/><circle cx="448" cy="216" r="0.7" fill="#26394c" opacity=".45"/><circle cx="448" cy="248" r="0.7" fill="#26394c" opacity=".45"/><circle cx="448" cy="280" r="0.7" fill="#26394c" opacity=".45"/><circle cx="448" cy="312" r="0.7" fill="#26394c" opacity=".45"/><circle cx="448" cy="344" r="0.7" fill="#26394c" opacity=".45"/><circle cx="448" cy="376" r="0.7" fill="#26394c" opacity=".45"/><circle cx="448" cy="408" r="0.7" fill="#26394c" opacity=".45"/><circle cx="448" cy="440" r="0.7" fill="#26394c" opacity=".45"/><circle cx="448" cy="472" r="0.7" fill="#26394c" opacity=".45"/><circle cx="448" cy="504" r="0.7" fill="#26394c" opacity=".45"/><circle cx="448" cy="536" r="0.7" fill="#26394c" opacity=".45"/><circle cx="480" cy="24" r="0.7" fill="#26394c" opacity=".45"/><circle cx="480" cy="56" r="0.7" fill="#26394c" opacity=".45"/><circle cx="480" cy="88" r="0.7" fill="#26394c" opacity=".45"/><circle cx="480" cy="120" r="0.7" fill="#26394c" opacity=".45"/><circle cx="480" cy="152" r="0.7" fill="#26394c" opacity=".45"/><circle cx="480" cy="184" r="0.7" fill="#26394c" opacity=".45"/><circle cx="480" cy="216" r="0.7" fill="#26394c" opacity=".45"/><circle cx="480" cy="248" r="0.7" fill="#26394c" opacity=".45"/><circle cx="480" cy="280" r="0.7" fill="#26394c" opacity=".45"/><circle cx="480" cy="312" r="0.7" fill="#26394c" opacity=".45"/><circle cx="480" cy="344" r="0.7" fill="#26394c" opacity=".45"/><circle cx="480" cy="376" r="0.7" fill="#26394c" opacity=".45"/><circle cx="480" cy="408" r="0.7" fill="#26394c" opacity=".45"/><circle cx="480" cy="440" r="0.7" fill="#26394c" opacity=".45"/><circle cx="480" cy="472" r="0.7" fill="#26394c" opacity=".45"/><circle cx="480" cy="504" r="0.7" fill="#26394c" opacity=".45"/><circle cx="480" cy="536" r="0.7" fill="#26394c" opacity=".45"/><circle cx="512" cy="24" r="0.7" fill="#26394c" opacity=".45"/><circle cx="512" cy="56" r="0.7" fill="#26394c" opacity=".45"/><circle cx="512" cy="88" r="0.7" fill="#26394c" opacity=".45"/><circle cx="512" cy="120" r="0.7" fill="#26394c" opacity=".45"/><circle cx="512" cy="152" r="0.7" fill="#26394c" opacity=".45"/><circle cx="512" cy="184" r="0.7" fill="#26394c" opacity=".45"/><circle cx="512" cy="216" r="0.7" fill="#26394c" opacity=".45"/><circle cx="512" cy="248" r="0.7" fill="#26394c" opacity=".45"/><circle cx="512" cy="280" r="0.7" fill="#26394c" opacity=".45"/><circle cx="512" cy="312" r="0.7" fill="#26394c" opacity=".45"/><circle cx="512" cy="344" r="0.7" fill="#26394c" opacity=".45"/><circle cx="512" cy="376" r="0.7" fill="#26394c" opacity=".45"/><circle cx="512" cy="408" r="0.7" fill="#26394c" opacity=".45"/><circle cx="512" cy="440" r="0.7" fill="#26394c" opacity=".45"/><circle cx="512" cy="472" r="0.7" fill="#26394c" opacity=".45"/><circle cx="512" cy="504" r="0.7" fill="#26394c" opacity=".45"/><circle cx="512" cy="536" r="0.7" fill="#26394c" opacity=".45"/><circle cx="544" cy="24" r="0.7" fill="#26394c" opacity=".45"/><circle cx="544" cy="56" r="0.7" fill="#26394c" opacity=".45"/><circle cx="544" cy="88" r="0.7" fill="#26394c" opacity=".45"/><circle cx="544" cy="120" r="0.7" fill="#26394c" opacity=".45"/><circle cx="544" cy="152" r="0.7" fill="#26394c" opacity=".45"/><circle cx="544" cy="184" r="0.7" fill="#26394c" opacity=".45"/><circle cx="544" cy="216" r="0.7" fill="#26394c" opacity=".45"/><circle cx="544" cy="248" r="0.7" fill="#26394c" opacity=".45"/><circle cx="544" cy="280" r="0.7" fill="#26394c" opacity=".45"/><circle cx="544" cy="312" r="0.7" fill="#26394c" opacity=".45"/><circle cx="544" cy="344" r="0.7" fill="#26394c" opacity=".45"/><circle cx="544" cy="376" r="0.7" fill="#26394c" opacity=".45"/><circle cx="544" cy="408" r="0.7" fill="#26394c" opacity=".45"/><circle cx="544" cy="440" r="0.7" fill="#26394c" opacity=".45"/><circle cx="544" cy="472" r="0.7" fill="#26394c" opacity=".45"/><circle cx="544" cy="504" r="0.7" fill="#26394c" opacity=".45"/><circle cx="544" cy="536" r="0.7" fill="#26394c" opacity=".45"/><circle cx="576" cy="24" r="0.7" fill="#26394c" opacity=".45"/><circle cx="576" cy="56" r="0.7" fill="#26394c" opacity=".45"/><circle cx="576" cy="88" r="0.7" fill="#26394c" opacity=".45"/><circle cx="576" cy="120" r="0.7" fill="#26394c" opacity=".45"/><circle cx="576" cy="152" r="0.7" fill="#26394c" opacity=".45"/><circle cx="576" cy="184" r="0.7" fill="#26394c" opacity=".45"/><circle cx="576" cy="216" r="0.7" fill="#26394c" opacity=".45"/><circle cx="576" cy="248" r="0.7" fill="#26394c" opacity=".45"/><circle cx="576" cy="280" r="0.7" fill="#26394c" opacity=".45"/><circle cx="576" cy="312" r="0.7" fill="#26394c" opacity=".45"/><circle cx="576" cy="344" r="0.7" fill="#26394c" opacity=".45"/><circle cx="576" cy="376" r="0.7" fill="#26394c" opacity=".45"/><circle cx="576" cy="408" r="0.7" fill="#26394c" opacity=".45"/><circle cx="576" cy="440" r="0.7" fill="#26394c" opacity=".45"/><circle cx="576" cy="472" r="0.7" fill="#26394c" opacity=".45"/><circle cx="576" cy="504" r="0.7" fill="#26394c" opacity=".45"/><circle cx="576" cy="536" r="0.7" fill="#26394c" opacity=".45"/><circle cx="608" cy="24" r="0.7" fill="#26394c" opacity=".45"/><circle cx="608" cy="56" r="0.7" fill="#26394c" opacity=".45"/><circle cx="608" cy="88" r="0.7" fill="#26394c" opacity=".45"/><circle cx="608" cy="120" r="0.7" fill="#26394c" opacity=".45"/><circle cx="608" cy="152" r="0.7" fill="#26394c" opacity=".45"/><circle cx="608" cy="184" r="0.7" fill="#26394c" opacity=".45"/><circle cx="608" cy="216" r="0.7" fill="#26394c" opacity=".45"/><circle cx="608" cy="248" r="0.7" fill="#26394c" opacity=".45"/><circle cx="608" cy="280" r="0.7" fill="#26394c" opacity=".45"/><circle cx="608" cy="312" r="0.7" fill="#26394c" opacity=".45"/><circle cx="608" cy="344" r="0.7" fill="#26394c" opacity=".45"/><circle cx="608" cy="376" r="0.7" fill="#26394c" opacity=".45"/><circle cx="608" cy="408" r="0.7" fill="#26394c" opacity=".45"/><circle cx="608" cy="440" r="0.7" fill="#26394c" opacity=".45"/><circle cx="608" cy="472" r="0.7" fill="#26394c" opacity=".45"/><circle cx="608" cy="504" r="0.7" fill="#26394c" opacity=".45"/><circle cx="608" cy="536" r="0.7" fill="#26394c" opacity=".45"/><circle cx="640" cy="24" r="0.7" fill="#26394c" opacity=".45"/><circle cx="640" cy="56" r="0.7" fill="#26394c" opacity=".45"/><circle cx="640" cy="88" r="0.7" fill="#26394c" opacity=".45"/><circle cx="640" cy="120" r="0.7" fill="#26394c" opacity=".45"/><circle cx="640" cy="152" r="0.7" fill="#26394c" opacity=".45"/><circle cx="640" cy="184" r="0.7" fill="#26394c" opacity=".45"/><circle cx="640" cy="216" r="0.7" fill="#26394c" opacity=".45"/><circle cx="640" cy="248" r="0.7" fill="#26394c" opacity=".45"/><circle cx="640" cy="280" r="0.7" fill="#26394c" opacity=".45"/><circle cx="640" cy="312" r="0.7" fill="#26394c" opacity=".45"/><circle cx="640" cy="344" r="0.7" fill="#26394c" opacity=".45"/><circle cx="640" cy="376" r="0.7" fill="#26394c" opacity=".45"/><circle cx="640" cy="408" r="0.7" fill="#26394c" opacity=".45"/><circle cx="640" cy="440" r="0.7" fill="#26394c" opacity=".45"/><circle cx="640" cy="472" r="0.7" fill="#26394c" opacity=".45"/><circle cx="640" cy="504" r="0.7" fill="#26394c" opacity=".45"/><circle cx="640" cy="536" r="0.7" fill="#26394c" opacity=".45"/><circle cx="672" cy="24" r="0.7" fill="#26394c" opacity=".45"/><circle cx="672" cy="56" r="0.7" fill="#26394c" opacity=".45"/><circle cx="672" cy="88" r="0.7" fill="#26394c" opacity=".45"/><circle cx="672" cy="120" r="0.7" fill="#26394c" opacity=".45"/><circle cx="672" cy="152" r="0.7" fill="#26394c" opacity=".45"/><circle cx="672" cy="184" r="0.7" fill="#26394c" opacity=".45"/><circle cx="672" cy="216" r="0.7" fill="#26394c" opacity=".45"/><circle cx="672" cy="248" r="0.7" fill="#26394c" opacity=".45"/><circle cx="672" cy="280" r="0.7" fill="#26394c" opacity=".45"/><circle cx="672" cy="312" r="0.7" fill="#26394c" opacity=".45"/><circle cx="672" cy="344" r="0.7" fill="#26394c" opacity=".45"/><circle cx="672" cy="376" r="0.7" fill="#26394c" opacity=".45"/><circle cx="672" cy="408" r="0.7" fill="#26394c" opacity=".45"/><circle cx="672" cy="440" r="0.7" fill="#26394c" opacity=".45"/><circle cx="672" cy="472" r="0.7" fill="#26394c" opacity=".45"/><circle cx="672" cy="504" r="0.7" fill="#26394c" opacity=".45"/><circle cx="672" cy="536" r="0.7" fill="#26394c" opacity=".45"/><circle cx="704" cy="24" r="0.7" fill="#26394c" opacity=".45"/><circle cx="704" cy="56" r="0.7" fill="#26394c" opacity=".45"/><circle cx="704" cy="88" r="0.7" fill="#26394c" opacity=".45"/><circle cx="704" cy="120" r="0.7" fill="#26394c" opacity=".45"/><circle cx="704" cy="152" r="0.7" fill="#26394c" opacity=".45"/><circle cx="704" cy="184" r="0.7" fill="#26394c" opacity=".45"/><circle cx="704" cy="216" r="0.7" fill="#26394c" opacity=".45"/><circle cx="704" cy="248" r="0.7" fill="#26394c" opacity=".45"/><circle cx="704" cy="280" r="0.7" fill="#26394c" opacity=".45"/><circle cx="704" cy="312" r="0.7" fill="#26394c" opacity=".45"/><circle cx="704" cy="344" r="0.7" fill="#26394c" opacity=".45"/><circle cx="704" cy="376" r="0.7" fill="#26394c" opacity=".45"/><circle cx="704" cy="408" r="0.7" fill="#26394c" opacity=".45"/><circle cx="704" cy="440" r="0.7" fill="#26394c" opacity=".45"/><circle cx="704" cy="472" r="0.7" fill="#26394c" opacity=".45"/><circle cx="704" cy="504" r="0.7" fill="#26394c" opacity=".45"/><circle cx="704" cy="536" r="0.7" fill="#26394c" opacity=".45"/><circle cx="736" cy="24" r="0.7" fill="#26394c" opacity=".45"/><circle cx="736" cy="56" r="0.7" fill="#26394c" opacity=".45"/><circle cx="736" cy="88" r="0.7" fill="#26394c" opacity=".45"/><circle cx="736" cy="120" r="0.7" fill="#26394c" opacity=".45"/><circle cx="736" cy="152" r="0.7" fill="#26394c" opacity=".45"/><circle cx="736" cy="184" r="0.7" fill="#26394c" opacity=".45"/><circle cx="736" cy="216" r="0.7" fill="#26394c" opacity=".45"/><circle cx="736" cy="248" r="0.7" fill="#26394c" opacity=".45"/><circle cx="736" cy="280" r="0.7" fill="#26394c" opacity=".45"/><circle cx="736" cy="312" r="0.7" fill="#26394c" opacity=".45"/><circle cx="736" cy="344" r="0.7" fill="#26394c" opacity=".45"/><circle cx="736" cy="376" r="0.7" fill="#26394c" opacity=".45"/><circle cx="736" cy="408" r="0.7" fill="#26394c" opacity=".45"/><circle cx="736" cy="440" r="0.7" fill="#26394c" opacity=".45"/><circle cx="736" cy="472" r="0.7" fill="#26394c" opacity=".45"/><circle cx="736" cy="504" r="0.7" fill="#26394c" opacity=".45"/><circle cx="736" cy="536" r="0.7" fill="#26394c" opacity=".45"/><circle cx="768" cy="24" r="0.7" fill="#26394c" opacity=".45"/><circle cx="768" cy="56" r="0.7" fill="#26394c" opacity=".45"/><circle cx="768" cy="88" r="0.7" fill="#26394c" opacity=".45"/><circle cx="768" cy="120" r="0.7" fill="#26394c" opacity=".45"/><circle cx="768" cy="152" r="0.7" fill="#26394c" opacity=".45"/><circle cx="768" cy="184" r="0.7" fill="#26394c" opacity=".45"/><circle cx="768" cy="216" r="0.7" fill="#26394c" opacity=".45"/><circle cx="768" cy="248" r="0.7" fill="#26394c" opacity=".45"/><circle cx="768" cy="280" r="0.7" fill="#26394c" opacity=".45"/><circle cx="768" cy="312" r="0.7" fill="#26394c" opacity=".45"/><circle cx="768" cy="344" r="0.7" fill="#26394c" opacity=".45"/><circle cx="768" cy="376" r="0.7" fill="#26394c" opacity=".45"/><circle cx="768" cy="408" r="0.7" fill="#26394c" opacity=".45"/><circle cx="768" cy="440" r="0.7" fill="#26394c" opacity=".45"/><circle cx="768" cy="472" r="0.7" fill="#26394c" opacity=".45"/><circle cx="768" cy="504" r="0.7" fill="#26394c" opacity=".45"/><circle cx="768" cy="536" r="0.7" fill="#26394c" opacity=".45"/><circle cx="800" cy="24" r="0.7" fill="#26394c" opacity=".45"/><circle cx="800" cy="56" r="0.7" fill="#26394c" opacity=".45"/><circle cx="800" cy="88" r="0.7" fill="#26394c" opacity=".45"/><circle cx="800" cy="120" r="0.7" fill="#26394c" opacity=".45"/><circle cx="800" cy="152" r="0.7" fill="#26394c" opacity=".45"/><circle cx="800" cy="184" r="0.7" fill="#26394c" opacity=".45"/><circle cx="800" cy="216" r="0.7" fill="#26394c" opacity=".45"/><circle cx="800" cy="248" r="0.7" fill="#26394c" opacity=".45"/><circle cx="800" cy="280" r="0.7" fill="#26394c" opacity=".45"/><circle cx="800" cy="312" r="0.7" fill="#26394c" opacity=".45"/><circle cx="800" cy="344" r="0.7" fill="#26394c" opacity=".45"/><circle cx="800" cy="376" r="0.7" fill="#26394c" opacity=".45"/><circle cx="800" cy="408" r="0.7" fill="#26394c" opacity=".45"/><circle cx="800" cy="440" r="0.7" fill="#26394c" opacity=".45"/><circle cx="800" cy="472" r="0.7" fill="#26394c" opacity=".45"/><circle cx="800" cy="504" r="0.7" fill="#26394c" opacity=".45"/><circle cx="800" cy="536" r="0.7" fill="#26394c" opacity=".45"/><circle cx="832" cy="24" r="0.7" fill="#26394c" opacity=".45"/><circle cx="832" cy="56" r="0.7" fill="#26394c" opacity=".45"/><circle cx="832" cy="88" r="0.7" fill="#26394c" opacity=".45"/><circle cx="832" cy="120" r="0.7" fill="#26394c" opacity=".45"/><circle cx="832" cy="152" r="0.7" fill="#26394c" opacity=".45"/><circle cx="832" cy="184" r="0.7" fill="#26394c" opacity=".45"/><circle cx="832" cy="216" r="0.7" fill="#26394c" opacity=".45"/><circle cx="832" cy="248" r="0.7" fill="#26394c" opacity=".45"/><circle cx="832" cy="280" r="0.7" fill="#26394c" opacity=".45"/><circle cx="832" cy="312" r="0.7" fill="#26394c" opacity=".45"/><circle cx="832" cy="344" r="0.7" fill="#26394c" opacity=".45"/><circle cx="832" cy="376" r="0.7" fill="#26394c" opacity=".45"/><circle cx="832" cy="408" r="0.7" fill="#26394c" opacity=".45"/><circle cx="832" cy="440" r="0.7" fill="#26394c" opacity=".45"/><circle cx="832" cy="472" r="0.7" fill="#26394c" opacity=".45"/><circle cx="832" cy="504" r="0.7" fill="#26394c" opacity=".45"/><circle cx="832" cy="536" r="0.7" fill="#26394c" opacity=".45"/><circle cx="864" cy="24" r="0.7" fill="#26394c" opacity=".45"/><circle cx="864" cy="56" r="0.7" fill="#26394c" opacity=".45"/><circle cx="864" cy="88" r="0.7" fill="#26394c" opacity=".45"/><circle cx="864" cy="120" r="0.7" fill="#26394c" opacity=".45"/><circle cx="864" cy="152" r="0.7" fill="#26394c" opacity=".45"/><circle cx="864" cy="184" r="0.7" fill="#26394c" opacity=".45"/><circle cx="864" cy="216" r="0.7" fill="#26394c" opacity=".45"/><circle cx="864" cy="248" r="0.7" fill="#26394c" opacity=".45"/><circle cx="864" cy="280" r="0.7" fill="#26394c" opacity=".45"/><circle cx="864" cy="312" r="0.7" fill="#26394c" opacity=".45"/><circle cx="864" cy="344" r="0.7" fill="#26394c" opacity=".45"/><circle cx="864" cy="376" r="0.7" fill="#26394c" opacity=".45"/><circle cx="864" cy="408" r="0.7" fill="#26394c" opacity=".45"/><circle cx="864" cy="440" r="0.7" fill="#26394c" opacity=".45"/><circle cx="864" cy="472" r="0.7" fill="#26394c" opacity=".45"/><circle cx="864" cy="504" r="0.7" fill="#26394c" opacity=".45"/><circle cx="864" cy="536" r="0.7" fill="#26394c" opacity=".45"/><circle cx="896" cy="24" r="0.7" fill="#26394c" opacity=".45"/><circle cx="896" cy="56" r="0.7" fill="#26394c" opacity=".45"/><circle cx="896" cy="88" r="0.7" fill="#26394c" opacity=".45"/><circle cx="896" cy="120" r="0.7" fill="#26394c" opacity=".45"/><circle cx="896" cy="152" r="0.7" fill="#26394c" opacity=".45"/><circle cx="896" cy="184" r="0.7" fill="#26394c" opacity=".45"/><circle cx="896" cy="216" r="0.7" fill="#26394c" opacity=".45"/><circle cx="896" cy="248" r="0.7" fill="#26394c" opacity=".45"/><circle cx="896" cy="280" r="0.7" fill="#26394c" opacity=".45"/><circle cx="896" cy="312" r="0.7" fill="#26394c" opacity=".45"/><circle cx="896" cy="344" r="0.7" fill="#26394c" opacity=".45"/><circle cx="896" cy="376" r="0.7" fill="#26394c" opacity=".45"/><circle cx="896" cy="408" r="0.7" fill="#26394c" opacity=".45"/><circle cx="896" cy="440" r="0.7" fill="#26394c" opacity=".45"/><circle cx="896" cy="472" r="0.7" fill="#26394c" opacity=".45"/><circle cx="896" cy="504" r="0.7" fill="#26394c" opacity=".45"/><circle cx="896" cy="536" r="0.7" fill="#26394c" opacity=".45"/><circle cx="928" cy="24" r="0.7" fill="#26394c" opacity=".45"/><circle cx="928" cy="56" r="0.7" fill="#26394c" opacity=".45"/><circle cx="928" cy="88" r="0.7" fill="#26394c" opacity=".45"/><circle cx="928" cy="120" r="0.7" fill="#26394c" opacity=".45"/><circle cx="928" cy="152" r="0.7" fill="#26394c" opacity=".45"/><circle cx="928" cy="184" r="0.7" fill="#26394c" opacity=".45"/><circle cx="928" cy="216" r="0.7" fill="#26394c" opacity=".45"/><circle cx="928" cy="248" r="0.7" fill="#26394c" opacity=".45"/><circle cx="928" cy="280" r="0.7" fill="#26394c" opacity=".45"/><circle cx="928" cy="312" r="0.7" fill="#26394c" opacity=".45"/><circle cx="928" cy="344" r="0.7" fill="#26394c" opacity=".45"/><circle cx="928" cy="376" r="0.7" fill="#26394c" opacity=".45"/><circle cx="928" cy="408" r="0.7" fill="#26394c" opacity=".45"/><circle cx="928" cy="440" r="0.7" fill="#26394c" opacity=".45"/><circle cx="928" cy="472" r="0.7" fill="#26394c" opacity=".45"/><circle cx="928" cy="504" r="0.7" fill="#26394c" opacity=".45"/><circle cx="928" cy="536" r="0.7" fill="#26394c" opacity=".45"/><path d="M28 52V28H52 M908 28h24v24 M28 488v24h24 M908 512h24v-24" fill="none" stroke="#b1d9ff" stroke-width="1" opacity=".5"/><text x="48" y="42" font-size="19" font-weight="600" fill="#7ef0cf" letter-spacing="2">METAHARNESS / FIELD GUIDE</text><text x="911" y="42" font-size="19" font-weight="500" fill="#9bb1c7" text-anchor="end" class="mono">02 / 12</text><text x="48" y="98" font-size="46" font-weight="750" fill="#eff7ff" letter-spacing="-1.4">Compose the agent you need</text><text x="49" y="138" font-size="25" font-weight="500" fill="#9bb1c7" >Choose identity, tools, skills, policy, and a host.</text><path d="M316 300H346" fill="none" stroke="#2b4358" stroke-width="2" marker-end="url(#arrow)"/><path d="M316 300H346" fill="none" stroke="#7ef0cf" stroke-width="5" opacity=".16" pathLength="100" class="packet" style="animation-delay:0.0s" filter="url(#glow)"/><path d="M316 300H346" fill="none" stroke="#7ef0cf" stroke-width="2.2" pathLength="100" class="packet" style="animation-delay:0.0s"/><path d="M614 300H644" fill="none" stroke="#2b4358" stroke-width="2" marker-end="url(#arrow)"/><path d="M614 300H644" fill="none" stroke="#7ef0cf" stroke-width="5" opacity=".16" pathLength="100" class="packet" style="animation-delay:-0.8s" filter="url(#glow)"/><path d="M614 300H644" fill="none" stroke="#7ef0cf" stroke-width="2.2" pathLength="100" class="packet" style="animation-delay:-0.8s"/><g class="diagram-card"><rect x="48" y="248" width="268" height="104" rx="14" fill="url(#panel)" stroke="#2b4358" /><rect x="48" y="248" width="268" height="104" rx="14" fill="none" stroke="#7ef0cf" class="step" style="animation-delay:0.0s"/><g transform="translate(66 265) scale(0.7083333333333334)"><path d="M24 2L29 18L46 24L29 30L24 46L19 30L2 24L19 18Z" fill="none" stroke="#7ef0cf" stroke-width="2" stroke-linejoin="round" stroke-linecap="round"/><path d="M24 2L29 18L46 24L29 30L24 46L19 30L2 24L19 18Z" fill="none" stroke="#7ef0cf" stroke-width="2.8" pathLength="100" class="trace" opacity=".85"/></g><text x="110" y="289" font-size="26" font-weight="700" fill="#7ef0cf" >Choose</text><text x="70" y="331" font-size="20" font-weight="500" fill="#9bb1c7" >Template / host / tools</text></g><text x="54" y="236" font-size="17" font-weight="600" fill="#9bb1c7" class="mono">01</text><g class="diagram-card"><rect x="346" y="248" width="268" height="104" rx="14" fill="url(#panel)" stroke="#2b4358" /><rect x="346" y="248" width="268" height="104" rx="14" fill="none" stroke="#7ef0cf" class="step" style="animation-delay:-1.5s"/><g transform="translate(364 265) scale(0.7083333333333334)"><path d="M3 14L24 3L45 14L24 25Z M3 24L24 35L45 24 M3 34L24 45L45 34" fill="none" stroke="#7ef0cf" stroke-width="2" stroke-linejoin="round" stroke-linecap="round"/><path d="M3 14L24 3L45 14L24 25Z M3 24L24 35L45 24 M3 34L24 45L45 34" fill="none" stroke="#7ef0cf" stroke-width="2.8" pathLength="100" class="trace" opacity=".85"/></g><text x="408" y="289" font-size="26" font-weight="700" fill="#7ef0cf" >Generate</text><text x="368" y="331" font-size="20" font-weight="500" fill="#9bb1c7" >Owned project scaffold</text></g><text x="352" y="236" font-size="17" font-weight="600" fill="#9bb1c7" class="mono">02</text><g class="diagram-card"><rect x="644" y="248" width="268" height="104" rx="14" fill="url(#panel)" stroke="#2b4358" /><rect x="644" y="248" width="268" height="104" rx="14" fill="none" stroke="#7ef0cf" class="step" style="animation-delay:-3.0s"/><g transform="translate(662 265) scale(0.7083333333333334)"><path d="M16 12L4 24L16 36 M32 12L44 24L32 36 M28 5L20 43" fill="none" stroke="#7ef0cf" stroke-width="2" stroke-linejoin="round" stroke-linecap="round"/><path d="M16 12L4 24L16 36 M32 12L44 24L32 36 M28 5L20 43" fill="none" stroke="#7ef0cf" stroke-width="2.8" pathLength="100" class="trace" opacity=".85"/></g><text x="706" y="289" font-size="26" font-weight="700" fill="#7ef0cf" >Customize</text><text x="666" y="331" font-size="20" font-weight="500" fill="#9bb1c7" >Identity / policy</text></g><text x="650" y="236" font-size="17" font-weight="600" fill="#9bb1c7" class="mono">03</text><path d="M48 489H912" fill="none" stroke="#2b4358" stroke-width="1" /><text x="49" y="521" font-size="23" font-weight="550" fill="#7ef0cf" >YOUR NAME · YOUR BRAND · YOUR CLI</text></svg>
